<?xml version="1.0" encoding="utf-8"?>
<!-- Uploaded to: SVG Repo, www.svgrepo.com, Generator: SVG Repo Mixer Tools -->
<svg fill="#000000" width="800px" height="800px" viewBox="0 0 32 32" version="1.1" xmlns="http://www.w3.org/2000/svg">
<title>phone-flip</title>
<path d="M24.389 1.106h-0.006c-0.023-0-0.049-0.001-0.076-0.001-0.352 0-0.695 0.037-1.027 0.107l0.032-0.006c-0.675 0.108-1.281 0.332-1.823 0.652l0.024-0.013c-0.187 0.113-0.319 0.302-0.355 0.522l-0.001 0.004-1.424 8.97c-0.006 0.036-0.009 0.077-0.009 0.118 0 0.207 0.084 0.394 0.22 0.529l0 0c0.679 0.676 1.515 1.194 2.449 1.497l0.044 0.012c-1.64 4.015-4.764 7.139-8.674 8.741l-0.105 0.038c-0.315-0.977-0.833-1.813-1.509-2.492l0 0c-0.136-0.136-0.325-0.22-0.532-0.22-0.041 0-0.081 0.003-0.119 0.009l0.004-0.001-8.97 1.424c-0.225 0.036-0.413 0.168-0.524 0.352l-0.002 0.003c-0.301 0.504-0.521 1.094-0.625 1.723l-0.004 0.029c-0.071 0.315-0.111 0.677-0.111 1.049 0 0.027 0 0.053 0.001 0.080l-0-0.004c0.025 3.497 2.856 6.325 6.352 6.346h0.002c12.761-0.014 23.102-10.355 23.116-23.115v-0.001c-0.022-3.498-2.85-6.328-6.345-6.354h-0.002zM7.62 29.076c-2.673-0.018-4.835-2.179-4.854-4.85v-0.002c-0-0.017-0-0.037-0-0.057 0-0.272 0.030-0.538 0.086-0.793l-0.005 0.024c0.060-0.367 0.161-0.696 0.301-1.003l-0.010 0.025 8.201-1.303c0.529 0.629 0.902 1.406 1.051 2.26l0.004 0.029c0.065 0.354 0.371 0.619 0.739 0.619 0.088 0 0.172-0.015 0.25-0.043l-0.005 0.002c5.072-1.773 8.994-5.695 10.73-10.645l0.037-0.121c0.026-0.073 0.041-0.157 0.041-0.245 0-0.368-0.265-0.674-0.615-0.738l-0.005-0.001c-0.883-0.153-1.66-0.526-2.296-1.061l0.007 0.006 1.303-8.201c0.296-0.134 0.64-0.238 0.999-0.297l0.024-0.003c0.217-0.046 0.466-0.072 0.721-0.072 0.019 0 0.038 0 0.057 0l-0.003-0c2.674 0.017 4.838 2.179 4.857 4.852v0.002c-0.014 11.933-9.684 21.602-21.615 21.616h-0.001z"></path>
</svg>